<svg width="120" height="120" viewBox="0 0 120 120" fill="none" xmlns="http://www.w3.org/2000/svg">
<path fill-rule="evenodd" clip-rule="evenodd" d="M120 0H0V120H120V0ZM58.8134 26.1818H27.5916V94.9091H58.8134C66.2752 94.9091 72.8534 93.5018 78.5479 90.6873C84.3079 87.8073 88.7588 83.7818 91.9007 78.6109C95.1079 73.44 96.7116 67.4182 96.7116 60.5455C96.7116 53.6727 95.1079 47.6509 91.9007 42.48C88.7588 37.3091 84.3079 33.3164 78.5479 30.5018C72.8534 27.6218 66.2752 26.1818 58.8134 26.1818ZM58.0279 81.8509C64.9007 81.8509 70.3661 79.9527 74.4243 76.1564C78.5479 72.2945 80.6097 67.0909 80.6097 60.5455C80.6097 54 78.5479 48.8291 74.4243 45.0327C70.3661 41.1709 64.9007 39.24 58.0279 39.24H43.497V81.8509H58.0279Z" fill="url(#paint0_linear)"/>
<defs>
<linearGradient id="paint0_linear" x1="60" y1="0" x2="60" y2="120" gradientUnits="userSpaceOnUse">
<stop stop-color="#FF4B4B"/>
<stop offset="1" stop-color="#FF813A"/>
</linearGradient>
</defs>
</svg>
