<svg width="184" height="45" viewBox="0 0 184 45" fill="none" xmlns="http://www.w3.org/2000/svg">
<path d="M65.746 9.05603C71.0793 9.05603 75.1753 10.336 78.034 12.896C80.8927 15.4133 82.322 19.232 82.322 24.352V43C82.322 43.5523 81.8743 44 81.322 44H73.8941C73.3881 44 72.978 43.5899 72.978 43.0839C72.978 42.15 71.5055 41.6594 70.764 42.2272C68.7751 43.7504 66.0144 44.512 62.482 44.512C59.8367 44.512 57.5327 44.064 55.57 43.168C53.65 42.272 52.178 41.0347 51.154 39.456C50.13 37.8773 49.618 36.0853 49.618 34.08C49.618 30.88 50.8127 28.3627 53.202 26.528C55.634 24.6933 59.3673 23.776 64.402 23.776H71.338C71.8903 23.776 72.3452 23.3269 72.2879 22.7776C72.1112 21.0842 71.4665 19.753 70.354 18.784C69.0313 17.5893 67.0473 16.992 64.402 16.992C62.5673 16.992 60.754 17.2907 58.962 17.888C57.6567 18.3019 56.494 18.8345 55.4738 19.4859C54.9424 19.8252 54.2135 19.6694 53.9254 19.1086L51.2954 13.9896C51.0675 13.546 51.1998 12.9998 51.621 12.7328C53.3425 11.6413 55.3415 10.7784 57.618 10.144C60.2633 9.4187 62.9727 9.05603 65.746 9.05603ZM64.978 37.792C66.6847 37.792 68.1993 37.408 69.522 36.64C70.7972 35.8584 71.7154 34.7398 72.2768 33.284C72.3184 33.176 72.338 33.0608 72.338 32.945V30.6C72.338 30.0477 71.8903 29.6 71.338 29.6H65.49C61.394 29.6 59.346 30.944 59.346 33.632C59.346 34.912 59.8367 35.936 60.818 36.704C61.842 37.4293 63.2287 37.792 64.978 37.792Z" fill="url(#paint0_linear)"/>
<path d="M95.3627 11.0045C95.3627 11.9761 96.7424 12.4764 97.5096 11.8802C98.2969 11.2684 99.1813 10.7536 100.163 10.336C101.949 9.59175 103.962 9.17206 106.203 9.07692C106.755 9.0535 107.203 9.50373 107.203 10.056V17.1921C107.203 17.7746 106.707 18.2323 106.125 18.1951C105.593 18.161 105.205 18.144 104.963 18.144C102.104 18.144 99.8641 18.9547 98.2428 20.576C96.6214 22.1547 95.8108 24.544 95.8108 27.744V43C95.8108 43.5523 95.363 44 94.8108 44H86.8268C86.2745 44 85.8268 43.5523 85.8268 43V10.568C85.8268 10.0157 86.2745 9.56801 86.8268 9.56801H94.3627C94.915 9.56801 95.3627 10.0157 95.3627 10.568V11.0045Z" fill="url(#paint1_linear)"/>
<path d="M144.944 29.911C144.944 34.1777 143.664 37.6123 141.104 40.215C138.544 42.8603 134.747 44.183 129.712 44.183H111C110.448 44.183 110 43.7353 110 43.183V35.199C110 34.6467 110.448 34.199 111 34.199H128.176C130.907 34.199 132.933 33.6017 134.256 32.407C135.621 31.2123 136.304 29.4843 136.304 27.223C136.304 24.7057 135.515 22.7003 133.936 21.207C132.4 19.7137 130.096 18.967 127.024 18.967H111C110.448 18.967 110 18.5193 110 17.967V9.98303C110 9.43074 110.448 8.98303 111 8.98303H143.432C143.984 8.98303 144.432 9.43075 144.432 9.98303V17.519C144.432 18.0713 143.984 18.519 143.432 18.519H142.981C142.068 18.519 141.579 19.7024 142.112 20.4442C142.758 21.3443 143.297 22.3452 143.728 23.447C144.539 25.4097 144.944 27.5643 144.944 29.911Z" fill="url(#paint2_linear)"/>
<path d="M168.911 9.05603C173.178 9.05603 176.612 10.336 179.215 12.896C181.86 15.456 183.183 19.2533 183.183 24.288V43C183.183 43.5523 182.735 44 182.183 44H174.199C173.647 44 173.199 43.5523 173.199 43V25.824C173.199 23.0933 172.602 21.0667 171.407 19.744C170.212 18.3787 168.484 17.696 166.223 17.696C163.706 17.696 161.7 18.4853 160.207 20.064C158.714 21.6 157.967 23.904 157.967 26.976V43C157.967 43.5523 157.519 44 156.967 44H148.983C148.431 44 147.983 43.5523 147.983 43V10.568C147.983 10.0157 148.431 9.56803 148.983 9.56803H156.519C157.071 9.56803 157.519 10.0157 157.519 10.568V11.019C157.519 11.9323 158.702 12.4207 159.444 11.8881C160.344 11.2418 161.345 10.7031 162.447 10.272C164.41 9.46136 166.564 9.05603 168.911 9.05603Z" fill="url(#paint3_linear)"/>
<path d="M86 1C86 0.447715 86.4477 0 87 0H182C182.552 0 183 0.447715 183 1V4C183 4.55228 182.552 5 182 5H87C86.4477 5 86 4.55228 86 4V1Z" fill="url(#paint4_linear)"/>
<path d="M110 23C110 22.4477 110.448 22 111 22H118C118.552 22 119 22.4477 119 23V30C119 30.5523 118.552 31 118 31H111C110.448 31 110 30.5523 110 30V23Z" fill="url(#paint5_linear)"/>
<path fill-rule="evenodd" clip-rule="evenodd" d="M47 1C47 0.447715 46.5523 0 46 0H1C0.447715 0 0 0.447714 0 0.999999V43C0 43.5523 0.447715 44 1 44H46C46.5523 44 47 43.5523 47 43V1ZM22.045 6.5H8.735C8.18272 6.5 7.735 6.94772 7.735 7.5V37C7.735 37.5523 8.18272 38 8.735 38H22.045C25.465 38 28.48 37.355 31.09 36.065C33.73 34.745 35.77 32.9 37.21 30.53C38.68 28.16 39.415 25.4 39.415 22.25C39.415 19.1 38.68 16.34 37.21 13.97C35.77 11.6 33.73 9.77 31.09 8.48C28.48 7.16 25.465 6.5 22.045 6.5ZM21.685 32.015C24.835 32.015 27.34 31.145 29.2 29.405C31.09 27.635 32.035 25.25 32.035 22.25C32.035 19.25 31.09 16.88 29.2 15.14C27.34 13.37 24.835 12.485 21.685 12.485H16.025C15.4727 12.485 15.025 12.9327 15.025 13.485V31.015C15.025 31.5673 15.4727 32.015 16.025 32.015H21.685Z" fill="url(#paint6_linear)"/>
<defs>
<linearGradient id="paint0_linear" x1="65.97" y1="9.05603" x2="65.97" y2="44.512" gradientUnits="userSpaceOnUse">
<stop stop-color="#FF4B4B"/>
<stop offset="1" stop-color="#FF813A"/>
</linearGradient>
<linearGradient id="paint1_linear" x1="96.5149" y1="9.07605" x2="96.5149" y2="44" gradientUnits="userSpaceOnUse">
<stop stop-color="#FF4B4B"/>
<stop offset="1" stop-color="#FF813A"/>
</linearGradient>
<linearGradient id="paint2_linear" x1="127.472" y1="8.98303" x2="127.472" y2="44.183" gradientUnits="userSpaceOnUse">
<stop stop-color="#FF4B4B"/>
<stop offset="1" stop-color="#FF813A"/>
</linearGradient>
<linearGradient id="paint3_linear" x1="165.583" y1="9.05603" x2="165.583" y2="44" gradientUnits="userSpaceOnUse">
<stop stop-color="#FF4B4B"/>
<stop offset="1" stop-color="#FF813A"/>
</linearGradient>
<linearGradient id="paint4_linear" x1="134.5" y1="0" x2="134.5" y2="5" gradientUnits="userSpaceOnUse">
<stop stop-color="#FF4B4B"/>
<stop offset="1" stop-color="#FF813A"/>
</linearGradient>
<linearGradient id="paint5_linear" x1="114.5" y1="22" x2="114.5" y2="31" gradientUnits="userSpaceOnUse">
<stop stop-color="#FF4B4B"/>
<stop offset="1" stop-color="#FF813A"/>
</linearGradient>
<linearGradient id="paint6_linear" x1="23.5" y1="0" x2="23.5" y2="44" gradientUnits="userSpaceOnUse">
<stop stop-color="#FF4B4B"/>
<stop offset="1" stop-color="#FF813A"/>
</linearGradient>
</defs>
</svg>
