<svg width="80" height="77" viewBox="0 0 80 77" fill="none" xmlns="http://www.w3.org/2000/svg">
<path fill-rule="evenodd" clip-rule="evenodd" d="M80 1.73834C80 0.778282 79.238 0 78.2979 0H1.70213C0.762068 0 0 0.77828 0 1.73834V74.7487C0 75.7088 0.762068 76.4871 1.70213 76.4871H78.2979C79.238 76.4871 80 75.7088 80 74.7487V1.73834ZM37.5234 11.2992H14.8681C13.928 11.2992 13.166 12.0775 13.166 13.0376V64.3187C13.166 65.2788 13.928 66.057 14.8681 66.057H37.5234C43.3447 66.057 48.4766 64.9358 52.9192 62.6933C57.4128 60.3987 60.8851 57.1915 63.3362 53.0716C65.8383 48.9517 67.0894 44.1539 67.0894 38.6781C67.0894 33.2023 65.8383 28.4045 63.3362 24.2846C60.8851 20.1648 57.4128 16.9836 52.9192 14.7411C48.4766 12.4465 43.3447 11.2992 37.5234 11.2992ZM36.9106 55.653C42.2723 55.653 46.5362 54.1407 49.7021 51.116C52.9192 48.0391 54.5277 43.8932 54.5277 38.6781C54.5277 33.4631 52.9192 29.3432 49.7021 26.3185C46.5362 23.2416 42.2723 21.7032 36.9106 21.7032H27.2766C26.3365 21.7032 25.5745 22.4815 25.5745 23.4415V53.9147C25.5745 54.8748 26.3365 55.653 27.2766 55.653H36.9106Z" fill="white"/>
</svg>
