<svg width="24" height="24" viewBox="0 0 24 24" fill="none" xmlns="http://www.w3.org/2000/svg">
<circle cx="12" cy="12" r="12" fill="url(#paint0_linear)"/>
<path d="M10.6332 13.368C9.10447 11.8392 8.75929 10.3105 8.68141 9.69796C8.65965 9.5286 8.71793 9.35876 8.83909 9.23845L10.0762 8.00185C10.2582 7.81997 10.2905 7.53653 10.1541 7.31838L8.18434 4.25975C8.03343 4.01818 7.72357 3.931 7.46884 4.05843L4.30664 5.54771C4.10064 5.64914 3.97948 5.868 4.00287 6.09642C4.16856 7.67047 4.85479 11.5399 8.65739 15.3427C12.46 19.1456 16.3288 19.8315 17.9037 19.9972C18.1322 20.0206 18.351 19.8995 18.4524 19.6935L19.9417 16.5313C20.0687 16.2771 19.9821 15.9681 19.7415 15.8169L16.6829 13.8477C16.4648 13.7111 16.1814 13.7432 15.9994 13.925L14.7628 15.1621C14.6425 15.2833 14.4726 15.3416 14.3033 15.3198C13.6908 15.2419 12.162 14.8968 10.6332 13.368V13.368Z" fill="white"/>
<defs>
<linearGradient id="paint0_linear" x1="0" y1="0" x2="24" y2="24" gradientUnits="userSpaceOnUse">
<stop stop-color="#FF813A"/>
<stop offset="1" stop-color="#FF4B4B"/>
</linearGradient>
</defs>
</svg>
