<?xml version="1.0" encoding="utf-8"?>
<!-- Generator: Adobe Illustrator 23.0.3, SVG Export Plug-In . SVG Version: 6.00 Build 0)  -->
<svg version="1.1" id="Слой_1" xmlns="http://www.w3.org/2000/svg" xmlns:xlink="http://www.w3.org/1999/xlink" x="0px" y="0px"
	 viewBox="0 0 222.3 139.8" style="enable-background:new 0 0 222.3 139.8;" xml:space="preserve">
<style type="text/css">
	.st0{fill-rule:evenodd;clip-rule:evenodd;fill:#FFFFFF;}
	.st1{fill-rule:evenodd;clip-rule:evenodd;fill:#E95D0F;}
	.st2{fill-rule:evenodd;clip-rule:evenodd;fill:#464646;}
</style>
<g>
	<path class="st0" d="M214.9,64.2l7.4-17.1l-26,0.8l-0.8-3.9c-2.3-14.8-14-24.5-29.5-24.5l-72.2,1.9L102.7,0L11.1,48.5l8.9,4.7
		c-0.4,0-1.2,0.4-1.6,0.4C9.9,56.7,7.9,61.8,6.8,64.9L1.4,77.3c-3.5,8.5,0.4,12.8,4.7,14.8C10,94,15,94.4,19.7,94.4l0,0h0.4l0.4,1.9
		c2.3,14.8,14,24.1,29.5,24.1l72.2-1.6l-8.9,21l91.6-48.5l-5-2.7c1.6-0.4,2.7-0.8,3.9-1.2c5-2.3,8.9-5.8,10.9-10.9
		c2.7-6.2,0.8-10.1-1.6-12.4h1.8V64.2z"/>
	<g>
		<path class="st1" d="M212.6,58.8l2.7-6.2l-40.8,1.2l-13.2,31.4l24.1-0.4c6.2,0,12.8-0.4,17.5-2.3c5.4-2.3,7.4-6.2,8.2-7.8
			c0.8-2.3,1.9-5.4-1.6-7.4c-3.5-1.9-9.7-1.6-13.6-1.6l-9.3,0.4l2.7-6.2L212.6,58.8z M188.9,71.2c1.6,0,2.7,0,3.9,0.4
			c1.6,0.8,1.6,1.6,0.8,2.7l-0.4,0.8c-0.4,0.8-0.8,1.6-2.3,2.3c-1.9,1.2-4.7,1.2-5.8,1.2h-4.7l3.1-7.8L188.9,71.2z"/>
		<path class="st1" d="M54.2,77l0.4-1.2h-12l-0.8,1.6c-2.3,5.4-7,5.8-10.1,5.8c-1.6,0-5,0-6.2-1.2s-0.4-3.1,0.4-4.3l3.5-8.5
			c1.2-2.3,1.9-3.9,3.1-5c2.3-1.9,5-1.9,7.8-1.9c3.9,0,8.2,0,6.2,4.7l-0.8,1.6L57,68.2l0.8-2.3c0.8-2.3,2.7-5.8-0.8-8.2
			c-3.1-1.9-9.7-1.6-16.7-1.6c-7.4,0-13.2,0.4-18.2,2.3c-6.6,2.3-7.8,5.8-8.5,8.2l-5,12c-1.2,2.3-2.7,5.8,1.9,8.2
			c3.5,1.6,9.3,1.6,16.7,1.6S40,88,45.4,86.1C50.7,84,52.2,80.5,54.2,77z"/>
		<polygon class="st1" points="100.8,86.7 114,55.3 69.3,56.1 55.7,87.9 73.2,87.5 83.7,61.9 94.2,61.9 83.7,87.1 		"/>
		<path class="st1" d="M156.7,67.7c2.3-1.2,3.5-2.3,4.3-4.7l1.2-3.1c1.6-3.5,3.9-5,5.4-5.8h-16.3c-2.3,1.2-3.9,2.3-4.7,4.3l-1.2,3.1
			c-0.8,1.9-1.6,3.1-2.7,3.9c-1.6,1.2-3.1,1.2-4.3,1.2h-3.9l5-12.4L122,54.6L108.8,86l17.5-0.4l5.4-13.2h3.5c1.6,0,3.1,0,3.9,0.4
			c1.6,0.8,0.8,1.9,0.4,3.5l-1.2,3.1c-0.8,1.6-1.2,3.5-0.4,4.7c0.4,0.4,1.2,1.2,2.3,1.2l16.3-0.4c-0.8-0.4-1.2-1.2-1.6-1.6
			c-1.6-1.9-0.4-4.3,0.4-6.6l0.8-2.3c0.4-1.2,0.4-2.7,0-3.5c-0.8-1.2-2.7-1.9-5-1.9l0,0C153.6,68.9,155.1,68.5,156.7,67.7z"/>
		<path class="st2" d="M27,95.3c1.9,10.5,10.1,19.8,25.2,19.4l79.6-1.6l-6.2,14.8l68.7-36.5l0,0L27,95.3z"/>
		<path class="st2" d="M191.6,44.8c-1.9-10.5-10.1-19.8-25.2-19.4L86.8,27L93,12.2L24.3,48.7l0,0L191.6,44.8z"/>
	</g>
</g>
</svg>
